<svg width="120" height="120" viewBox="0 0 120 120" fill="none" xmlns="http://www.w3.org/2000/svg">
  <!-- The Moon: Crescent with stars -->

  <!-- Crescent moon (hand-drawn) -->
  <path d="M65 25 Q55 35 55 50 Q55 65 65 75 Q72 68 72 50 Q72 32 65 25"
        stroke="#2d4a3e"
        stroke-width="2.5"
        fill="none"
        stroke-linecap="round"/>

  <!-- Fill for crescent -->
  <path d="M65 25 Q55 35 55 50 Q55 65 65 75 Q68 70 68 50 Q68 35 65 25"
        fill="#2d4a3e"
        opacity="0.15"/>

  <!-- Stars (hand-drawn, imperfect) -->
  <path d="M35 35 L36 38 L39 38 L37 40 L38 43 L35 41 L32 43 L33 40 L31 38 L34 38 Z"
        fill="#2d4a3e"/>

  <path d="M85 30 L86 32 L88 32 L86 34 L87 36 L85 35 L83 36 L84 34 L82 32 L84 32 Z"
        fill="#2d4a3e"
        opacity="0.7"/>

  <path d="M45 70 L46 72 L48 72 L46 74 L47 76 L45 75 L43 76 L44 74 L42 72 L44 72 Z"
        fill="#2d4a3e"
        opacity="0.5"/>

  <path d="M80 65 L81 67 L83 67 L81 69 L82 71 L80 70 L78 71 L79 69 L77 67 L79 67 Z"
        fill="#2d4a3e"
        opacity="0.8"/>

  <!-- Tiny dots for distant stars -->
  <circle cx="50" cy="45" r="1" fill="#2d4a3e" opacity="0.6"/>
  <circle cx="75" cy="48" r="1.5" fill="#2d4a3e" opacity="0.5"/>
  <circle cx="40" cy="58" r="1" fill="#2d4a3e" opacity="0.4"/>
  <circle cx="70" cy="80" r="1" fill="#2d4a3e" opacity="0.7"/>
</svg>
