<svg width="120" height="120" viewBox="0 0 120 120" fill="none" xmlns="http://www.w3.org/2000/svg">
  <!-- The Magician: Four elements united (small imperfect symbols) -->

  <!-- Water (cup) - top left -->
  <path d="M25 30 Q23 35 25 40 L35 40 Q37 35 35 30 Z"
        stroke="#2d4a3e"
        stroke-width="2"
        fill="none"
        stroke-linecap="round"/>

  <!-- Fire (wand/stick) - top right -->
  <line x1="85" y1="25" x2="88" y2="45"
        stroke="#2d4a3e"
        stroke-width="2.5"
        stroke-linecap="round"/>
  <circle cx="86.5" cy="23" r="2" fill="#2d4a3e"/>

  <!-- Air (sword) - bottom left -->
  <path d="M30 85 L30 75 M28 75 L32 75"
        stroke="#2d4a3e"
        stroke-width="2"
        stroke-linecap="round"/>
  <line x1="30" y1="75" x2="30" y2="65"
        stroke="#2d4a3e"
        stroke-width="1.5"/>

  <!-- Earth (pentacle) - bottom right -->
  <circle cx="87" cy="80" r="8"
          stroke="#2d4a3e"
          stroke-width="2"
          fill="none"/>
  <path d="M87 72 L87 88 M79 80 L95 80"
        stroke="#2d4a3e"
        stroke-width="1.5"/>

  <!-- Center infinity symbol (hand-drawn style) -->
  <path d="M45 55 Q50 50 55 55 Q60 60 65 55 Q70 50 75 55 Q70 60 65 55 Q60 50 55 55 Q50 60 45 55"
        stroke="#2d4a3e"
        stroke-width="2.5"
        fill="none"
        stroke-linecap="round"/>
</svg>
