<svg width="512" height="512" viewBox="0 0 512 512" fill="none" xmlns="http://www.w3.org/2000/svg">
<g clip-path="url(#clip0_161_178)">
<rect width="512" height="512" fill="#171F1A"/>
<path d="M272.77 93.5068C258.813 95.6706 249.941 97.9425 239.014 102.162C224.192 107.896 217.052 111.574 213.59 115.253L211.101 117.958L215.213 116.335C221.379 113.738 219.973 115.253 213.049 118.607C209.587 120.338 205.043 122.718 202.987 124.016C200.932 125.315 198.443 126.396 197.47 126.396C195.414 126.396 176.264 138.73 173.668 141.651C172.694 142.841 171.504 143.707 170.963 143.707C169.665 143.815 164.796 148.9 162.308 152.903C161.226 154.634 158.413 158.745 156.141 161.883C151.381 168.482 144.565 181.79 136.992 199.533C134.179 206.024 132.664 214.246 132.231 225.931C132.015 232.53 132.339 236.75 133.097 237.724C133.962 239.022 133.962 239.13 132.88 238.481C131.041 237.399 131.366 253.411 133.313 260.552C134.395 264.555 135.693 264.987 134.828 261.093C134.72 260.443 135.044 260.443 135.477 260.876C136.342 261.742 136.667 262.932 137.316 268.125C138.182 273.967 142.617 285.327 147.81 294.523C150.84 299.824 153.22 304.585 153.22 305.126C153.22 307.181 163.714 319.731 173.451 329.577C178.969 335.094 183.513 340.179 183.513 340.828C183.513 341.477 183.838 341.694 184.162 341.369C184.595 340.937 185.677 341.477 186.651 342.559C188.382 344.507 197.686 349.051 198.551 348.402C198.768 348.185 199.309 348.51 199.633 349.051C199.958 349.592 202.013 350.349 204.069 350.674C210.344 351.539 217.376 353.703 220.947 355.867C222.786 356.949 224.625 357.598 224.95 357.165C225.382 356.84 225.707 357.057 225.707 357.814C225.707 358.68 226.464 359.004 227.33 358.571C228.195 358.247 228.953 358.355 228.953 358.896C228.953 359.329 230.684 360.194 232.739 360.843C235.877 361.817 236.742 361.709 237.716 360.302C238.798 358.571 238.798 358.571 238.257 360.302C237.716 362.033 238.582 362.142 247.129 361.709C260.22 360.952 299.276 351.755 300.142 349.159C300.358 348.618 304.253 346.238 308.797 343.966C324.809 335.96 335.952 328.495 337.683 324.6C338.224 323.302 339.414 322.22 340.172 322.22C340.929 322.22 341.254 321.787 340.929 321.138C340.604 320.489 340.929 320.056 341.795 320.056C345.798 320.056 361.052 298.743 361.485 292.468C361.593 291.818 362.242 290.196 363 288.789C364.19 286.734 364.19 286.409 362.892 287.166C362.134 287.599 362.351 286.95 363.432 285.76C364.406 284.57 364.947 283.271 364.514 282.947C364.19 282.514 364.406 282.19 365.163 282.19C365.921 282.19 366.245 281.757 365.921 281.324C365.596 280.783 366.029 278.187 366.895 275.482C369.707 266.177 371.655 242.159 369.599 242.159C368.842 242.159 368.517 241.51 368.842 240.645C369.924 237.832 366.137 223.226 362.675 216.735C360.728 213.165 358.239 207.971 357.157 205.158C356.184 202.346 354.885 200.29 354.345 200.615C353.046 201.372 347.745 195.854 348.502 194.556C348.827 193.907 348.719 193.474 348.178 193.474C347.529 193.474 346.663 192.068 346.014 190.445C344.716 186.55 328.054 169.889 322.212 166.643C318.317 164.479 317.668 164.371 316.262 165.886C314.206 167.833 312.908 168.049 313.99 166.102C314.639 165.128 314.531 165.128 313.232 165.994C312.042 166.968 311.393 166.968 310.311 165.777C309.554 164.912 309.338 164.263 309.77 164.263C310.852 164.263 307.715 162.099 306.525 162.099C305.984 162.099 305.984 162.532 306.308 163.181C306.633 163.722 306.2 164.263 305.226 164.263C304.036 164.263 303.604 163.722 304.036 162.532C304.469 161.233 304.145 161.017 302.522 161.558C301.332 161.991 300.358 161.774 300.358 161.125C300.358 159.07 291.378 155.608 286.618 155.824C283.913 155.932 282.29 156.473 282.615 157.23C282.939 157.771 282.507 157.447 281.641 156.473C280.559 155.067 279.91 154.85 278.936 155.824C278.179 156.581 277.638 156.69 277.638 156.04C277.638 155.499 277.097 155.824 276.556 156.69C275.691 158.096 275.474 158.096 275.474 156.581C275.474 155.608 274.825 154.85 274.176 154.85C273.419 154.85 272.337 154.634 271.688 154.526C269.957 153.985 260.111 155.716 256.541 157.23C254.81 157.988 249.941 159.178 245.722 159.935C241.611 160.693 236.31 162.207 234.146 163.289C229.71 165.561 224.625 169.889 224.625 171.512C224.625 173.243 219.216 177.354 217.917 176.596C217.268 176.164 216.944 176.488 217.268 177.354C217.593 178.219 216.186 179.626 213.914 180.708C211.101 182.114 209.37 184.17 207.531 188.065C206.017 191.418 204.61 193.149 203.745 192.825C202.771 192.5 201.256 194.448 199.525 198.018C194.657 207.971 193.034 215.653 192.493 232.963C191.952 249.733 193.034 257.414 197.253 267.043C198.227 269.099 198.876 271.154 198.876 271.587C198.768 272.128 199.092 272.452 199.742 272.452C200.282 272.452 200.823 273.102 200.823 273.859C200.823 275.698 208.397 283.38 209.587 282.622C210.128 282.298 210.236 282.839 209.911 283.704C209.046 286.084 212.4 289.114 220.298 293.009C227.979 296.687 228.412 296.903 232.631 299.933C236.634 302.746 243.991 303.936 256 303.719C273.96 303.395 283.805 298.202 292.46 284.678C295.489 280.026 298.302 275.049 298.735 273.534C299.168 272.02 299.925 270.289 300.358 269.748C300.791 269.099 302.413 265.096 304.036 260.768C306.2 254.601 306.849 250.815 306.849 243.674C306.849 232.206 304.469 226.688 295.814 218.141C284.67 207.106 279.369 206.024 265.521 211.758C259.462 214.246 256 216.627 252.43 220.413C246.479 226.796 244.748 231.773 245.506 240.645C246.371 251.572 251.781 258.496 259.679 258.712C264.98 258.821 268.875 255.791 272.661 248.326C275.15 243.241 275.474 241.835 274.392 240.537C272.12 237.832 268.983 238.697 264.98 242.917C261.41 246.92 261.193 246.92 259.679 244.972C257.19 241.618 257.731 234.262 260.652 231.665C264.655 227.987 267.468 227.013 274.176 227.013C281.533 227.013 284.021 228.96 286.834 236.642C291.811 250.815 284.238 266.61 268.658 274.508C256 280.891 243.558 280.134 229.385 272.128C222.137 268.017 221.704 267.476 220.298 262.283C219.54 259.253 218.675 254.277 218.35 251.355C217.917 247.028 217.701 246.379 216.944 248.11C216.295 249.516 216.078 246.379 216.403 239.996C216.944 227.337 220.406 216.735 227.979 204.185C230.9 199.316 233.28 194.88 233.28 194.34C233.28 193.907 234.579 193.474 236.31 193.474C237.932 193.474 241.395 192.392 244.099 191.202C255.784 185.793 263.249 183.629 266.278 184.819C267.793 185.36 271.904 185.901 275.258 185.901C279.694 185.901 280.992 186.225 279.802 186.983C278.395 187.848 278.395 188.065 279.91 188.065C282.507 188.065 307.823 196.612 311.718 198.667C313.449 199.641 315.829 201.48 317.019 202.67C318.101 203.86 319.399 204.726 319.94 204.618C320.481 204.401 320.914 204.834 320.914 205.375C320.914 206.024 321.888 207.43 323.078 208.621C324.268 209.811 325.242 210.46 325.242 210.135C325.242 209.702 326.756 211.325 328.487 213.597C330.326 215.977 333.139 219.44 334.87 221.495C336.601 223.551 339.198 228.744 340.496 232.855L342.876 240.537L339.955 258.28C336.818 276.672 334.438 285.543 331.408 290.196C328.92 293.874 311.934 308.696 305.226 312.915C298.519 317.135 281.533 326.223 284.995 323.626C293.975 317.243 297.004 313.997 291.595 316.918C290.404 317.568 288.89 317.892 288.241 317.676C287.592 317.459 290.188 316.053 293.975 314.646C297.761 313.24 300.25 311.942 299.492 311.617C298.735 311.401 292.676 313.889 285.969 317.027C269.416 325.141 269.957 324.924 261.842 326.331C251.24 328.17 231.982 325.898 226.789 322.22C221.704 318.649 202.879 311.184 200.174 311.725C195.198 312.591 190.221 306.316 176.589 281.757C166.095 262.824 163.606 256.657 162.308 245.513C161.875 241.402 161.226 239.238 160.685 240.104C159.603 241.943 159.17 241.402 157.872 235.884C157.007 232.53 157.007 231.34 157.98 231.34C159.928 231.34 161.875 227.337 164.796 217.492C166.203 212.407 168.907 205.267 170.638 201.696L173.884 195.097L170.855 198.343C169.232 200.182 166.96 202.778 165.878 204.293C164.796 205.808 164.147 206.457 164.472 205.808C164.796 205.158 165.229 203.319 165.554 201.696C166.203 198.126 169.016 193.474 170.638 193.474C171.288 193.474 171.504 193.041 171.071 192.5C170.747 191.851 171.179 191.094 171.937 190.553C173.776 189.471 196.712 163.397 199.201 159.502C200.282 157.988 201.148 155.391 201.148 153.985C201.148 151.064 202.23 149.874 205.692 149.441C206.882 149.224 210.777 147.169 214.347 144.789C223.543 138.838 235.877 133.429 249.292 129.534C255.676 127.695 265.088 124.774 270.389 123.043L279.802 119.905L288.565 122.069C293.326 123.259 303.387 126.505 310.96 129.318C318.534 132.022 330.002 136.025 336.385 138.297L348.178 142.3L359.538 153.877C367.652 161.991 371.438 165.237 372.737 164.804C374.684 164.263 377.497 166.751 380.635 171.836C383.015 175.731 389.073 191.743 391.237 199.965C392.319 203.86 394.699 210.893 396.647 215.653C399.568 223.118 400.217 226.255 400.974 238.914C401.407 246.92 402.489 256.116 403.138 259.362C404.328 264.555 404.22 265.637 402.489 268.558C401.407 270.397 400.542 272.128 400.65 272.452C400.65 272.777 400.001 274.833 399.135 277.105C397.837 280.242 397.188 280.891 396.43 279.809C395.673 278.727 395.565 278.836 395.998 280.242C396.647 282.298 386.91 306.316 380.851 317.892C377.389 324.275 377.281 324.6 379.877 321.787C381.392 320.164 382.907 318.974 383.123 319.19C383.88 319.84 372.196 342.776 370.14 344.831C369.167 345.805 370.357 342.776 372.845 338.124C375.333 333.471 377.173 329.468 376.848 329.144C376.523 328.819 373.602 331.957 370.357 336.068C363.108 345.156 353.154 353.811 349.692 354.136C348.178 354.352 344.391 356.408 341.254 358.896C337.142 361.925 332.057 364.305 324.592 366.686C318.75 368.525 313.124 371.013 312.151 372.095C311.177 373.177 306.741 375.124 302.413 376.315C297.978 377.505 289.647 380.101 283.697 382.157C277.854 384.212 272.229 385.619 271.363 385.186C270.389 384.862 269.957 385.078 270.389 385.727C270.93 386.484 270.389 386.701 268.983 386.376C267.252 385.943 266.927 386.16 267.468 387.566C268.009 388.973 267.468 389.297 264.547 389.189C262.491 389.081 261.734 388.865 262.816 388.54C263.79 388.324 264.439 387.566 264.114 387.133C263.79 386.593 266.278 385.294 269.74 384.321C275.799 382.59 278.612 381.183 277.53 380.209C277.313 379.993 272.77 380.75 267.36 381.94C262.059 383.022 252.754 384.212 246.804 384.645C227.113 385.727 222.678 385.511 222.245 383.239C222.029 382.265 216.078 379.127 207.315 375.341C172.261 360.302 155.708 349.7 144.565 335.311C141.103 330.767 136.992 325.898 135.369 324.383C133.746 322.869 130.284 318 127.687 313.565C125.091 309.129 120.979 302.746 118.599 299.5C112.216 290.845 109.295 284.245 105.617 270.18C102.804 259.578 102.371 255.899 102.371 244.215C102.371 233.396 101.83 228.852 99.9906 222.036C96.5286 210.135 96.6368 192.5 100.099 183.196C101.505 179.626 104.535 170.971 106.915 163.938C109.511 156.257 112.216 150.198 113.839 148.575C117.626 144.789 117.734 139.271 114.055 135.376C106.266 126.937 93.2829 136.566 98.1514 147.169C99.0169 149.224 98.5842 151.28 95.9876 157.771C91.8764 168.049 88.7389 179.626 86.3588 192.933L84.5195 203.427L78.8937 205.267L73.2678 207.214L70.8876 201.696C69.5894 198.667 68.6156 195.746 68.7238 195.205C70.1303 188.93 70.0221 188.065 67.4256 185.468C62.7734 180.816 56.0656 182.222 53.9019 188.173C52.4954 191.959 54.3346 196.071 58.3376 198.018C61.3669 199.424 62.1243 200.723 64.1799 207.647C65.6945 212.84 66.1273 216.194 65.5863 217.384C65.0454 218.358 64.0717 221.387 63.4225 224.2C60.7178 236.317 70.5631 262.174 83.3294 276.564C85.6014 279.16 89.0635 286.084 93.0665 295.93C96.4204 304.368 100.423 313.781 101.938 317.027C105.076 323.734 115.354 340.612 119.573 346.021C121.196 348.077 123.576 351.539 124.982 353.595L127.471 357.381L124.117 353.595C122.17 351.539 119.14 347.644 117.301 344.94C111.351 336.609 109.295 335.202 113.19 342.235C118.816 352.513 132.231 371.23 138.939 378.154C147.81 387.35 167.826 402.929 175.399 406.499C184.92 411.043 204.069 417.318 208.397 417.318C210.452 417.427 213.373 417.318 214.888 417.21C218.134 416.994 231.441 418.4 232.09 419.049C232.307 419.266 233.388 419.049 234.47 418.4C235.66 417.751 236.526 417.751 236.526 418.4C236.526 420.78 260.328 422.944 267.901 421.105C269.416 420.78 274.501 420.24 279.261 420.023C292.027 419.266 320.157 414.073 322.537 411.909C323.078 411.368 324.376 410.935 325.35 410.935C328.704 410.935 363.108 392.651 373.927 385.186C388.965 374.8 400.325 365.063 405.626 358.139C410.062 352.296 426.182 323.302 428.995 316.053C429.753 314.214 430.077 312.05 429.645 311.509C429.32 310.86 429.645 310.319 430.402 310.319C431.376 310.319 431.376 309.994 430.185 309.237C429.32 308.696 429.104 308.155 429.645 308.155C430.294 308.155 429.969 307.722 429.212 307.181C427.913 306.316 428.238 305.991 430.618 305.342C432.674 304.909 433.215 304.368 432.241 303.719C431.267 303.178 431.159 302.529 432.025 301.447C432.674 300.69 433.323 299.716 433.323 299.175C433.431 298.743 433.539 298.093 433.539 297.552C433.648 297.12 433.648 295.93 433.539 294.848C433.431 293.874 433.864 293.009 434.513 293.009C435.162 293.009 435.379 292.468 435.054 291.927C434.729 291.277 434.946 290.845 435.487 290.845C436.136 290.845 436.677 290.304 436.677 289.655C436.677 289.114 436.244 288.897 435.595 289.222C434.08 290.087 434.188 289.438 436.136 285.868C437.001 284.137 437.759 283.488 437.867 284.353C437.867 285.219 438.408 284.786 438.949 283.271C439.706 281.432 439.706 280.459 438.841 280.242C438.3 280.026 437.975 279.377 438.408 278.836C438.732 278.295 438.408 277.862 437.651 277.862C436.893 277.862 437.001 276.996 438.192 275.157C439.165 273.643 439.49 272.452 438.841 272.452C438.192 272.452 438.192 271.479 438.841 269.748C439.382 268.233 439.598 267.043 439.273 267.043C438.841 267.043 439.057 266.394 439.598 265.637C440.247 264.987 440.572 261.742 440.463 258.604C440.247 255.467 440.572 252.762 441.004 252.437C441.978 251.788 441.545 246.595 439.706 238.914C438.408 232.855 438.192 231.99 437.326 225.715C436.136 217.6 431.051 203.644 428.563 201.913C428.022 201.48 427.805 201.047 428.238 201.047C428.671 201.047 427.589 198.234 425.75 194.772C424.019 191.418 421.098 185.36 419.367 181.357C415.039 171.187 406.6 159.178 395.673 147.602C390.588 142.084 383.556 134.294 379.985 130.291C374.143 123.475 359.97 112.332 357.266 112.332C356.508 112.332 353.371 110.601 350.125 108.545C342.227 103.46 330.867 99.7818 309.554 95.5624C301.548 93.9395 278.287 92.6412 272.77 93.5068ZM327.405 124.774C330.11 126.18 333.248 128.127 334.438 129.101C335.628 129.967 332.49 128.777 327.405 126.288C322.32 123.8 317.993 121.528 317.668 121.312C316.586 120.23 322.645 122.393 327.405 124.774ZM419.15 195.097C418.826 195.421 418.176 194.88 417.852 193.799C417.203 192.284 417.311 192.176 418.393 193.149C419.15 193.907 419.475 194.772 419.15 195.097ZM421.098 201.805C420.016 202.887 419.042 201.264 420.016 199.857C420.665 198.667 420.881 198.667 421.314 199.857C421.53 200.615 421.422 201.48 421.098 201.805ZM423.153 205.375C423.478 205.916 423.261 206.457 422.72 206.457C422.071 206.457 421.53 205.916 421.53 205.375C421.53 204.726 421.747 204.293 421.963 204.293C422.288 204.293 422.829 204.726 423.153 205.375ZM344.499 237.832C344.607 240.32 344.499 240.32 343.634 238.373C343.093 237.183 342.768 234.694 342.768 232.963C342.768 229.826 342.768 229.826 343.634 232.422C344.067 233.937 344.499 236.317 344.499 237.832ZM291.27 258.821C290.296 261.201 288.349 264.663 286.834 266.502C284.454 269.207 284.562 268.882 287.375 264.338C289.214 261.417 291.054 256.981 291.378 254.601C291.811 252.113 292.352 251.139 292.568 252.329C292.785 253.411 292.244 256.332 291.27 258.821ZM202.338 267.584C202.663 268.449 202.446 269.207 201.905 269.207C201.256 269.207 200.823 268.449 200.823 267.584C200.823 266.718 201.04 265.961 201.256 265.961C201.473 265.961 201.905 266.718 202.338 267.584ZM342.227 270.505C341.903 271.371 341.578 271.046 341.578 269.856C341.47 268.666 341.795 268.017 342.119 268.449C342.444 268.774 342.552 269.748 342.227 270.505ZM173.884 286.084C175.182 288.356 175.832 289.871 175.182 289.438C173.668 288.465 166.635 276.564 165.662 273.318C165.337 272.02 166.419 273.318 168.15 276.455C169.881 279.485 172.478 283.812 173.884 286.084ZM341.145 276.455C340.821 277.537 340.604 276.888 340.604 275.157C340.604 273.318 340.821 272.561 341.145 273.21C341.362 273.967 341.362 275.482 341.145 276.455ZM399.892 291.277C399.892 291.602 399.46 292.143 398.81 292.468C398.27 292.792 397.729 292.576 397.729 292.035C397.729 291.386 398.27 290.845 398.81 290.845C399.46 290.845 399.892 291.061 399.892 291.277ZM176.373 297.336C179.402 301.88 179.835 303.287 178.104 302.205C176.913 301.447 172.37 293.009 173.019 293.009C173.343 293.009 174.75 294.956 176.373 297.336ZM421.098 297.985C420.665 299.5 420.124 300.582 419.799 300.257C419.475 300.041 419.583 298.418 420.016 296.903C420.34 295.28 420.989 294.199 421.206 294.523C421.53 294.848 421.422 296.362 421.098 297.985ZM240.854 297.336C240.854 297.877 240.096 298.093 239.231 297.769C238.365 297.336 237.608 296.903 237.608 296.687C237.608 296.471 238.365 296.254 239.231 296.254C240.096 296.254 240.854 296.687 240.854 297.336ZM412.551 300.798C412.226 301.664 411.901 301.339 411.901 300.149C411.793 298.959 412.118 298.31 412.442 298.743C412.767 299.067 412.875 300.041 412.551 300.798ZM292.244 402.28C291.054 402.821 289.323 403.254 288.457 403.254C287.483 403.254 287.592 402.821 288.998 402.28C290.188 401.739 291.919 401.306 292.785 401.306C293.758 401.306 293.65 401.739 292.244 402.28Z" fill="#CEF17B"/>
<path d="M278.72 380.75C278.72 381.291 279.261 381.508 279.802 381.183C280.451 380.858 280.884 380.317 280.884 379.993C280.884 379.776 280.451 379.56 279.802 379.56C279.261 379.56 278.72 380.101 278.72 380.75Z" fill="#CEF17B"/>
</g>
<defs>
<clipPath id="clip0_161_178">
<rect width="512" height="512" fill="white"/>
</clipPath>
</defs>
</svg>
