<svg xmlns="http://www.w3.org/2000/svg" viewBox="0 0 192 192">
  <path d="M102.079 41.7224C97.4359 42.4422 94.4846 43.198 90.8495 44.6017C85.9187 46.5092 83.5432 47.7329 82.3915 48.9566L81.5637 49.8564L82.9314 49.3165C84.9829 48.4527 84.515 48.9566 82.2116 50.0724C81.0598 50.6482 79.5482 51.44 78.8644 51.8719C78.1805 52.3038 77.3527 52.6637 77.0288 52.6637C76.345 52.6637 69.9745 56.7668 69.1107 57.7385C68.7868 58.1344 68.3909 58.4224 68.2109 58.4224C67.779 58.4584 66.1594 60.1499 65.3316 61.4816C64.9717 62.0575 64.0359 63.4252 63.2801 64.4689C61.6965 66.6644 59.429 71.0913 56.9096 76.9939C55.9738 79.1534 55.47 81.8887 55.326 85.7758C55.254 87.9713 55.362 89.375 55.6139 89.6989C55.9019 90.1308 55.9019 90.1668 55.5419 89.9508C54.9301 89.5909 55.0381 94.9176 55.6859 97.2931C56.0458 98.6247 56.4777 98.7687 56.1898 97.473C56.1538 97.2571 56.2618 97.2571 56.4057 97.401C56.6937 97.689 56.8016 98.0849 57.0176 99.8124C57.3055 101.756 58.7812 105.535 60.5088 108.594C61.5165 110.358 62.3083 111.942 62.3083 112.122C62.3083 112.805 65.7995 116.98 69.0387 120.256C70.8743 122.091 72.3859 123.783 72.3859 123.999C72.3859 124.215 72.4939 124.287 72.6019 124.179C72.7458 124.035 73.1057 124.215 73.4297 124.575C74.0055 125.222 77.1008 126.734 77.3887 126.518C77.4607 126.446 77.6407 126.554 77.7486 126.734C77.8566 126.914 78.5404 127.166 79.2243 127.274C81.3118 127.562 83.6512 128.282 84.8389 129.001C85.4508 129.361 86.0626 129.577 86.1706 129.433C86.3146 129.325 86.4226 129.397 86.4226 129.649C86.4226 129.937 86.6745 130.045 86.9624 129.901C87.2504 129.793 87.5023 129.829 87.5023 130.009C87.5023 130.153 88.0782 130.441 88.762 130.657C89.8057 130.981 90.0937 130.945 90.4176 130.477C90.7775 129.901 90.7775 129.901 90.5976 130.477C90.4176 131.053 90.7055 131.089 93.5488 130.945C97.9038 130.693 110.897 127.634 111.185 126.77C111.257 126.59 112.552 125.798 114.064 125.042C119.391 122.379 123.098 119.896 123.674 118.6C123.854 118.168 124.249 117.808 124.501 117.808C124.753 117.808 124.861 117.664 124.753 117.448C124.645 117.232 124.753 117.088 125.041 117.088C126.373 117.088 131.448 109.998 131.592 107.911C131.628 107.695 131.844 107.155 132.096 106.687C132.492 106.003 132.492 105.895 132.06 106.147C131.808 106.291 131.88 106.075 132.24 105.679C132.564 105.283 132.743 104.851 132.599 104.743C132.492 104.599 132.564 104.491 132.815 104.491C133.067 104.491 133.175 104.347 133.067 104.203C132.959 104.023 133.103 103.16 133.391 102.26C134.327 99.1646 134.975 91.1745 134.291 91.1745C134.039 91.1745 133.931 90.9586 134.039 90.6706C134.399 89.7349 133.139 84.876 131.988 82.7165C131.34 81.5288 130.512 79.8012 130.152 78.8655C129.828 77.9297 129.396 77.2459 129.216 77.3538C128.784 77.6058 127.021 75.7702 127.273 75.3383C127.381 75.1224 127.345 74.9784 127.165 74.9784C126.949 74.9784 126.661 74.5105 126.445 73.9706C126.013 72.6749 120.47 67.1323 118.527 66.0525C117.231 65.3327 117.015 65.2967 116.547 65.8006C115.864 66.4484 115.432 66.5204 115.792 65.8726C116.007 65.5487 115.971 65.5487 115.54 65.8366C115.144 66.1605 114.928 66.1605 114.568 65.7646C114.316 65.4767 114.244 65.2607 114.388 65.2607C114.748 65.2607 113.704 64.5409 113.308 64.5409C113.128 64.5409 113.128 64.6849 113.236 64.9008C113.344 65.0808 113.2 65.2607 112.876 65.2607C112.48 65.2607 112.336 65.0808 112.48 64.6849C112.624 64.253 112.516 64.181 111.976 64.3609C111.581 64.5049 111.257 64.4329 111.257 64.217C111.257 63.5331 108.269 62.3814 106.686 62.4534C105.786 62.4894 105.246 62.6693 105.354 62.9213C105.462 63.1012 105.318 62.9933 105.03 62.6693C104.67 62.2015 104.454 62.1295 104.13 62.4534C103.878 62.7053 103.698 62.7413 103.698 62.5254C103.698 62.3454 103.518 62.4534 103.339 62.7413C103.051 63.2092 102.979 63.2092 102.979 62.7053C102.979 62.3814 102.763 62.1295 102.547 62.1295C102.295 62.1295 101.935 62.0575 101.719 62.0215C101.143 61.8415 97.8678 62.4174 96.6801 62.9213C96.1042 63.1732 94.4846 63.5691 93.081 63.8211C91.7133 64.073 89.9497 64.5769 89.2299 64.9368C87.7542 65.6926 86.0626 67.1323 86.0626 67.6721C86.0626 68.248 84.2631 69.6157 83.8312 69.3637C83.6152 69.2198 83.5072 69.3277 83.6152 69.6157C83.7232 69.9036 83.2553 70.3715 82.4995 70.7314C81.5637 71.1993 80.9879 71.8831 80.376 73.1788C79.8721 74.2946 79.4042 74.8704 79.1163 74.7624C78.7924 74.6545 78.2885 75.3023 77.7126 76.49C76.093 79.8012 75.5532 82.3566 75.3732 88.1153C75.1932 93.6939 75.5532 96.2493 76.9568 99.4525C77.2807 100.136 77.4967 100.82 77.4967 100.964C77.4607 101.144 77.5687 101.252 77.7846 101.252C77.9646 101.252 78.1445 101.468 78.1445 101.72C78.1445 102.332 80.6639 104.887 81.0598 104.635C81.2398 104.527 81.2758 104.707 81.1678 104.995C80.8799 105.787 81.9956 106.795 84.623 108.09C87.1784 109.314 87.3223 109.386 88.726 110.394C90.0577 111.33 92.5051 111.726 96.5001 111.654C102.475 111.546 105.75 109.818 108.629 105.319C109.637 103.772 110.573 102.116 110.717 101.612C110.861 101.108 111.113 100.532 111.257 100.352C111.401 100.136 111.94 98.8047 112.48 97.365C113.2 95.3135 113.416 94.0538 113.416 91.6784C113.416 87.8633 112.624 86.0278 109.745 83.1844C106.038 79.5133 104.274 79.1534 99.6674 81.0609C97.6519 81.8887 96.5001 82.6806 95.3124 83.9403C93.3329 86.0637 92.757 87.7193 93.009 90.6706C93.2969 94.3058 95.0965 96.6092 97.7238 96.6812C99.4874 96.7172 100.783 95.7094 102.043 93.226C102.871 91.5344 102.979 91.0665 102.619 90.6346C101.863 89.7349 100.819 90.0228 99.4874 91.4265C98.2997 92.7581 98.2277 92.7581 97.7238 92.1103C96.896 90.9946 97.076 88.5471 98.0478 87.6834C99.3794 86.4596 100.315 86.1357 102.547 86.1357C104.994 86.1357 105.822 86.7836 106.758 89.339C108.413 94.0538 105.894 99.3086 100.711 101.936C96.5001 104.059 92.3611 103.807 87.6463 101.144C85.2348 99.7765 85.0909 99.5965 84.623 97.8689C84.371 96.8612 84.0831 95.2056 83.9751 94.2338C83.8312 92.7941 83.7592 92.5782 83.5072 93.154C83.2913 93.6219 83.2193 92.5782 83.3273 90.4547C83.5072 86.2437 84.659 82.7165 87.1784 78.5415C88.1501 76.9219 88.9419 75.4463 88.9419 75.2663C88.9419 75.1224 89.3738 74.9784 89.9497 74.9784C90.4896 74.9784 91.6413 74.6185 92.5411 74.2226C96.4282 72.423 98.9116 71.7032 99.9193 72.0991C100.423 72.279 101.791 72.459 102.907 72.459C104.382 72.459 104.814 72.567 104.418 72.8189C103.95 73.1068 103.95 73.1788 104.454 73.1788C105.318 73.1788 113.74 76.0221 115.036 76.706C115.612 77.0299 116.403 77.6418 116.799 78.0377C117.159 78.4336 117.591 78.7215 117.771 78.6855C117.951 78.6135 118.095 78.7575 118.095 78.9375C118.095 79.1534 118.419 79.6213 118.815 80.0172C119.211 80.4131 119.535 80.629 119.535 80.5211C119.535 80.3771 120.039 80.917 120.614 81.6728C121.226 82.4646 122.162 83.6163 122.738 84.3002C123.314 84.984 124.178 86.7116 124.609 88.0793L125.401 90.6346L124.429 96.5372C123.386 102.656 122.594 105.607 121.586 107.155C120.758 108.378 115.108 113.309 112.876 114.713C110.645 116.117 104.994 119.14 106.146 118.276C109.133 116.153 110.141 115.073 108.341 116.045C107.945 116.261 107.442 116.368 107.226 116.296C107.01 116.225 107.873 115.757 109.133 115.289C110.393 114.821 111.221 114.389 110.969 114.281C110.717 114.209 108.701 115.037 106.47 116.081C100.963 118.78 101.143 118.708 98.4437 119.176C94.9165 119.788 88.5101 119.032 86.7825 117.808C85.0909 116.62 78.8284 114.137 77.9286 114.317C76.273 114.605 74.6174 112.517 70.0825 104.347C66.5913 98.0489 65.7635 95.9974 65.3316 92.2903C65.1876 90.9226 64.9717 90.2028 64.7917 90.4907C64.4318 91.1025 64.2879 90.9226 63.856 89.087C63.568 87.9713 63.568 87.5754 63.8919 87.5754C64.5398 87.5754 65.1876 86.2437 66.1594 82.9685C66.6273 81.2769 67.5271 78.9015 68.1029 77.7137L69.1827 75.5183L68.1749 76.598C67.6351 77.2099 66.8792 78.0737 66.5193 78.5775C66.1594 79.0814 65.9435 79.2974 66.0514 79.0814C66.1594 78.8655 66.3034 78.2536 66.4113 77.7137C66.6273 76.526 67.5631 74.9784 68.1029 74.9784C68.3189 74.9784 68.3909 74.8344 68.2469 74.6545C68.1389 74.4385 68.2829 74.1866 68.5348 74.0066C69.1467 73.6467 76.7769 64.9728 77.6047 63.6771C77.9646 63.1732 78.2525 62.3094 78.2525 61.8415C78.2525 60.8698 78.6124 60.4739 79.7641 60.3299C80.1601 60.2579 81.4557 59.5741 82.6435 58.7823C85.7027 56.8027 89.8057 55.0032 94.2687 53.7075C96.3922 53.0956 99.5234 52.1239 101.287 51.548L104.418 50.5043L107.334 51.2241C108.917 51.62 112.264 52.6997 114.784 53.6355C117.303 54.5353 121.118 55.867 123.242 56.6228L127.165 57.9545L130.944 61.8056C133.643 64.5049 134.903 65.5846 135.335 65.4407C135.983 65.2607 136.918 66.0885 137.962 67.7801C138.754 69.0758 140.77 74.4025 141.489 77.1379C141.849 78.4336 142.641 80.773 143.289 82.3566C144.261 84.84 144.477 85.8838 144.729 90.0948C144.873 92.7581 145.232 95.8174 145.448 96.8971C145.844 98.6247 145.808 98.9846 145.232 99.9564C144.873 100.568 144.585 101.144 144.621 101.252C144.621 101.36 144.405 102.044 144.117 102.8C143.685 103.843 143.469 104.059 143.217 103.7C142.965 103.34 142.929 103.376 143.073 103.843C143.289 104.527 140.05 112.517 138.034 116.368C136.882 118.492 136.846 118.6 137.71 117.664C138.214 117.124 138.718 116.728 138.79 116.8C139.042 117.016 135.155 124.646 134.471 125.33C134.147 125.654 134.543 124.646 135.371 123.099C136.199 121.551 136.81 120.22 136.703 120.112C136.595 120.004 135.623 121.047 134.543 122.415C132.132 125.438 128.82 128.318 127.669 128.426C127.165 128.498 125.905 129.181 124.861 130.009C123.494 131.017 121.802 131.809 119.319 132.601C117.375 133.212 115.504 134.04 115.18 134.4C114.856 134.76 113.38 135.408 111.94 135.804C110.465 136.2 107.693 137.064 105.714 137.747C103.77 138.431 101.899 138.899 101.611 138.755C101.287 138.647 101.143 138.719 101.287 138.935C101.467 139.187 101.287 139.259 100.819 139.151C100.243 139.007 100.135 139.079 100.315 139.547C100.495 140.015 100.315 140.123 99.3435 140.087C98.6596 140.051 98.4077 139.979 98.7676 139.871C99.0915 139.799 99.3075 139.547 99.1995 139.403C99.0915 139.223 99.9193 138.791 101.071 138.467C103.087 137.891 104.022 137.423 103.662 137.1C103.59 137.028 102.079 137.279 100.279 137.675C98.5157 138.035 95.4204 138.431 93.4409 138.575C86.8904 138.935 85.4148 138.863 85.2708 138.107C85.1988 137.783 83.2193 136.74 80.304 135.48C68.6428 130.477 63.1361 126.95 59.429 122.163C58.2773 120.651 56.9096 119.032 56.3698 118.528C55.8299 118.024 54.6782 116.404 53.8144 114.929C52.9506 113.453 51.5829 111.33 50.7911 110.25C48.6676 107.371 47.6958 105.175 46.4721 100.496C45.5363 96.9691 45.3924 95.7454 45.3924 91.8584C45.3924 88.2592 45.2124 86.7476 44.6006 84.4801C43.4488 80.5211 43.4848 74.6545 44.6366 71.5592C45.1044 70.3715 46.1122 67.4922 46.904 65.1527C47.7678 62.5974 48.6676 60.5818 49.2075 60.042C50.4672 58.7823 50.5032 56.9467 49.2794 55.651C46.6881 52.8437 42.3691 56.0469 43.9887 59.5741C44.2766 60.2579 44.1327 60.9418 43.2689 63.1012C41.9012 66.5204 40.8575 70.3715 40.0657 74.7984L39.4538 78.2896L37.5823 78.9015L35.7107 79.5493L34.9189 77.7137C34.487 76.706 34.1631 75.7342 34.1991 75.5543C34.6669 73.4668 34.631 73.1788 33.7672 72.315C32.2195 70.7674 29.9881 71.2353 29.2682 73.2148C28.8004 74.4745 29.4122 75.8422 30.7439 76.49C31.7516 76.9579 32.0036 77.3898 32.6874 79.6933C33.1913 81.4209 33.3353 82.5366 33.1553 82.9325C32.9754 83.2564 32.6514 84.2642 32.4355 85.2C31.5357 89.231 34.8109 97.8329 39.0579 102.62C39.8137 103.484 40.9654 105.787 42.2971 109.062C43.4129 111.87 44.7445 115.001 45.2484 116.081C46.2922 118.312 49.7113 123.927 51.115 125.726C51.6549 126.41 52.4467 127.562 52.9146 128.246L53.7424 129.505L52.6266 128.246C51.9788 127.562 50.971 126.266 50.3592 125.366C48.3797 122.595 47.6958 122.127 48.9915 124.467C50.8631 127.886 55.326 134.112 57.5575 136.416C60.5088 139.475 67.1672 144.658 69.6866 145.845C72.8538 147.357 79.2243 149.445 80.6639 149.445C81.3478 149.481 82.3195 149.445 82.8234 149.409C83.9032 149.337 88.3301 149.804 88.546 150.02C88.618 150.092 88.9779 150.02 89.3379 149.804C89.7338 149.589 90.0217 149.589 90.0217 149.804C90.0217 150.596 97.9398 151.316 100.459 150.704C100.963 150.596 102.655 150.416 104.238 150.344C108.485 150.092 117.843 148.365 118.635 147.645C118.815 147.465 119.247 147.321 119.571 147.321C120.686 147.321 132.132 141.239 135.731 138.755C140.734 135.3 144.513 132.061 146.276 129.757C147.752 127.814 153.115 118.168 154.05 115.757C154.302 115.145 154.41 114.425 154.266 114.245C154.158 114.029 154.266 113.849 154.518 113.849C154.842 113.849 154.842 113.741 154.446 113.489C154.158 113.309 154.086 113.129 154.266 113.129C154.482 113.129 154.374 112.985 154.122 112.805C153.69 112.517 153.798 112.409 154.59 112.193C155.274 112.05 155.454 111.87 155.13 111.654C154.806 111.474 154.77 111.258 155.058 110.898C155.274 110.646 155.49 110.322 155.49 110.142C155.526 109.998 155.562 109.782 155.562 109.602C155.598 109.458 155.598 109.062 155.562 108.702C155.526 108.378 155.67 108.09 155.886 108.09C156.102 108.09 156.174 107.911 156.066 107.731C155.958 107.515 156.03 107.371 156.21 107.371C156.426 107.371 156.606 107.191 156.606 106.975C156.606 106.795 156.462 106.723 156.246 106.831C155.742 107.119 155.778 106.903 156.426 105.715C156.714 105.139 156.966 104.923 157.002 105.211C157.002 105.499 157.182 105.355 157.362 104.851C157.614 104.239 157.614 103.915 157.326 103.843C157.146 103.772 157.038 103.556 157.182 103.376C157.29 103.196 157.182 103.052 156.93 103.052C156.678 103.052 156.714 102.764 157.11 102.152C157.434 101.648 157.542 101.252 157.326 101.252C157.11 101.252 157.11 100.928 157.326 100.352C157.506 99.8484 157.578 99.4525 157.47 99.4525C157.326 99.4525 157.398 99.2366 157.578 98.9846C157.793 98.7687 157.901 97.689 157.865 96.6452C157.793 95.6015 157.901 94.7017 158.045 94.5937C158.369 94.3778 158.225 92.6502 157.614 90.0948C157.182 88.0793 157.11 87.7913 156.822 85.7038C156.426 83.0045 154.734 78.3616 153.906 77.7857C153.726 77.6418 153.654 77.4978 153.798 77.4978C153.942 77.4978 153.582 76.562 152.971 75.4103C152.395 74.2946 151.423 72.279 150.847 70.9474C149.407 67.5642 146.6 63.5691 142.965 59.7181C141.273 57.8825 138.934 55.2911 137.746 53.9594C135.803 51.692 131.088 47.9849 130.188 47.9849C129.936 47.9849 128.892 47.409 127.813 46.7252C125.185 45.0336 121.406 43.8099 114.316 42.4062C111.653 41.8663 103.914 41.4344 102.079 41.7224Z" fill="#172211" stroke="#172211" stroke-width="1" paint-order="stroke fill markers"/>
  <path d="M104.058 137.279C104.058 137.459 104.238 137.531 104.418 137.423C104.634 137.315 104.778 137.135 104.778 137.027C104.778 136.956 104.634 136.884 104.418 136.884C104.238 136.884 104.058 137.063 104.058 137.279Z" fill="#172211" stroke="#172211" stroke-width="1" paint-order="stroke fill markers"/>
</svg>
